<svg aria-hidden="true" style="position: absolute; width: 0; height: 0; overflow: hidden;" version="1.1"
    xmlns="http://www.w3.org/2000/svg" xmlns:xlink="http://www.w3.org/1999/xlink">
    <defs>
        <symbol id="youtube" viewBox="0 0 45 32">
            <path
                d="M43.664 5.831c-0.486-1.944-2.025-3.484-3.889-3.97-3.484-0.972-17.257-0.972-17.257-0.972s-13.854 0-17.338 0.972c-1.863 0.486-3.403 2.025-3.889 3.97-0.972 3.403-0.972 10.695-0.972 10.695s0 7.211 0.972 10.694c0.486 1.944 2.025 3.403 3.889 3.889 3.484 0.891 17.338 0.891 17.338 0.891s13.773 0 17.257-0.891c1.863-0.486 3.403-1.944 3.889-3.889 0.972-3.484 0.972-10.694 0.972-10.694s0-7.292-0.972-10.694zM17.982 23.088v-13.125l11.505 6.563-11.505 6.563z">
            </path>
        </symbol>
        <symbol id="linkedin" viewBox="0 0 32 32">
            <path
                d="M7.25 32v-21.099h-6.563v21.099h6.563zM3.933 8.079c2.117 0 3.81-1.764 3.81-3.881 0-2.046-1.694-3.74-3.81-3.74-2.046 0-3.74 1.694-3.74 3.74 0 2.117 1.694 3.881 3.74 3.881zM31.736 32h0.071v-11.573c0-5.645-1.27-10.020-7.903-10.020-3.175 0-5.292 1.764-6.21 3.387h-0.070v-2.893h-6.28v21.099h6.562v-10.444c0-2.752 0.494-5.363 3.881-5.363s3.458 3.105 3.458 5.575v10.232h6.492z">
            </path>
        </symbol>
        <symbol id="twitter" viewBox="0 0 37 32">
            <path
                d="M33.469 8.283c1.458-1.094 2.771-2.406 3.792-3.938-1.312 0.583-2.844 1.021-4.375 1.167 1.604-0.948 2.771-2.406 3.354-4.229-1.458 0.875-3.135 1.531-4.812 1.896-1.458-1.531-3.427-2.406-5.615-2.406-4.229 0-7.656 3.427-7.656 7.656 0 0.583 0.073 1.167 0.219 1.75-6.344-0.365-12.031-3.427-15.823-8.021-0.656 1.094-1.021 2.406-1.021 3.865 0 2.625 1.313 4.958 3.427 6.344-1.24-0.073-2.479-0.365-3.5-0.948v0.073c0 3.719 2.625 6.781 6.125 7.511-0.583 0.146-1.313 0.292-1.969 0.292-0.51 0-0.948-0.073-1.458-0.146 0.948 3.063 3.792 5.25 7.146 5.323-2.625 2.042-5.906 3.281-9.479 3.281-0.656 0-1.24-0.073-1.823-0.146 3.354 2.187 7.365 3.427 11.74 3.427 14.073 0 21.729-11.594 21.729-21.729 0-0.365 0-0.656 0-1.021z">
            </path>
        </symbol>
        <symbol id="facebook" viewBox="0 0 32 32">
            <path
                d="M31.5 16.343c0-8.563-6.938-15.5-15.5-15.5s-15.5 6.938-15.5 15.5c0 7.75 5.625 14.188 13.063 15.312v-10.812h-3.938v-4.5h3.938v-3.375c0-3.875 2.313-6.063 5.812-6.063 1.75 0 3.5 0.313 3.5 0.313v3.813h-1.937c-1.938 0-2.562 1.187-2.562 2.438v2.875h4.313l-0.688 4.5h-3.625v10.812c7.437-1.125 13.125-7.562 13.125-15.312z">
            </path>
        </symbol>
        <symbol id="arrow-right" viewBox="0 0 15 32">
            <path fill="#fff" style="fill: var(--color1, #fff)"
                d="M13.281 17.006l-8.053 8.053c-0.557 0.557-1.457 0.557-2.007 0l-1.338-1.338c-0.557-0.557-0.557-1.457 0-2.007l5.708-5.708-5.708-5.708c-0.557-0.557-0.557-1.457 0-2.007l1.332-1.35c0.557-0.557 1.457-0.557 2.007 0l8.053 8.053c0.563 0.557 0.563 1.457 0.006 2.013z">
            </path>
        </symbol>
        <symbol id="logo" viewBox="0 0 36 32">
            <path
                d="M32.891 2.392c-3.324 0.189-9.931 0.877-14.010 3.378-0.282 0.173-0.441 0.479-0.441 0.8v22.11c0 0.702 0.766 1.145 1.412 0.82 4.196-2.116 10.265-2.693 13.266-2.851 1.025-0.054 1.821-0.877 1.821-1.863v-20.529c0.001-1.076-0.931-1.929-2.048-1.865zM16.058 5.77c-4.078-2.501-10.685-3.188-14.009-3.378-1.117-0.063-2.049 0.789-2.049 1.865v20.529c0 0.987 0.796 1.809 1.821 1.863 3.002 0.158 9.074 0.736 13.271 2.853 0.644 0.325 1.408-0.118 1.408-0.818v-22.125c0-0.321-0.159-0.616-0.441-0.789z">
            </path>
        </symbol>
    </defs>
</svg>